<svg width="167" height="39" viewBox="0 0 167 39" fill="none" xmlns="http://www.w3.org/2000/svg">
<path d="M35.2704 8.03152C34.7095 7.26166 34.0934 6.53358 33.427 5.85301C33.3796 5.80532 33.3347 5.75793 33.2873 5.71024C31.1808 3.60163 28.6192 2.00376 25.7991 1.03937V26.6181C25.7991 27.4755 25.6303 28.3246 25.3022 29.1167C24.9741 29.9089 24.4932 30.6287 23.8869 31.2349C23.2806 31.8413 22.5608 32.3223 21.7686 32.6503C20.9765 32.9783 20.1274 33.1472 19.27 33.1472H15.3779V38.5627C16.7327 38.8517 18.114 38.9975 19.4993 38.9975C23.0962 38.9978 26.6232 38.0033 29.6901 36.1239C32.7571 34.2445 35.2442 31.553 36.8766 28.3479C38.5089 25.1427 39.2228 21.5483 38.9394 17.9626C38.656 14.3767 37.3861 10.9393 35.2704 8.03029V8.03152Z" fill="#E3DEC1"/>
<path d="M19.4992 3.23512e-09C15.9024 0.000342519 12.3757 0.995454 9.30914 2.87529C6.24264 4.75513 3.75575 7.44645 2.12353 10.6516C0.491304 13.8568 -0.22267 17.451 0.060562 21.0367C0.343793 24.6224 1.6132 28.0599 3.72839 30.969C4.29059 31.7386 4.90759 32.4666 5.57459 33.1472C5.62044 33.1934 5.66536 33.2395 5.71121 33.2888C7.81732 35.3971 10.3781 36.9953 13.1972 37.9609V12.3797C13.198 10.6481 13.8863 8.98775 15.111 7.76363C16.3356 6.53951 17.9963 5.85183 19.7278 5.85183H23.6199V0.436318C22.2656 0.146225 20.8843 -2.51156e-05 19.4992 3.23512e-09Z" fill="#E3DEC1"/>
<path d="M72.78 10.2588C72.7 11.1788 72.64 12.0788 72.6 12.9588C72.58 13.8188 72.57 14.4788 72.57 14.9388C72.57 15.3988 72.58 15.8288 72.6 16.2288C72.62 16.6288 72.64 16.9788 72.66 17.2788H71.97C71.69 15.6788 71.35 14.4288 70.95 13.5288C70.55 12.6088 70.02 11.9488 69.36 11.5488C68.72 11.1488 67.87 10.9488 66.81 10.9488H65.85V28.0488C65.85 28.8688 65.92 29.4788 66.06 29.8788C66.22 30.2788 66.53 30.5488 66.99 30.6888C67.45 30.8088 68.12 30.8788 69 30.8988V31.4988C68.4 31.4588 67.62 31.4388 66.66 31.4388C65.7 31.4188 64.72 31.4088 63.72 31.4088C62.68 31.4088 61.7 31.4188 60.78 31.4388C59.88 31.4388 59.15 31.4588 58.59 31.4988V30.8988C59.45 30.8788 60.11 30.8088 60.57 30.6888C61.03 30.5488 61.34 30.2788 61.5 29.8788C61.66 29.4788 61.74 28.8688 61.74 28.0488V10.9488H60.75C59.71 10.9488 58.86 11.1488 58.2 11.5488C57.54 11.9488 57.01 12.6088 56.61 13.5288C56.21 14.4288 55.88 15.6788 55.62 17.2788H54.93C54.97 16.9788 54.99 16.6288 54.99 16.2288C55.01 15.8288 55.02 15.3988 55.02 14.9388C55.02 14.4788 55 13.8188 54.96 12.9588C54.94 12.0788 54.89 11.1788 54.81 10.2588C55.69 10.2788 56.66 10.2988 57.72 10.3188C58.78 10.3388 59.84 10.3488 60.9 10.3488C61.96 10.3488 62.93 10.3488 63.81 10.3488C64.67 10.3488 65.63 10.3488 66.69 10.3488C67.75 10.3488 68.81 10.3388 69.87 10.3188C70.93 10.2988 71.9 10.2788 72.78 10.2588ZM84.3103 15.5688C84.9303 15.5688 85.4403 15.6988 85.8403 15.9588C86.2603 16.2188 86.5703 16.5488 86.7703 16.9488C86.9703 17.3488 87.0703 17.7688 87.0703 18.2088C87.0703 18.8688 86.8703 19.4188 86.4703 19.8588C86.0903 20.2988 85.5803 20.5188 84.9403 20.5188C84.3403 20.5188 83.8503 20.3588 83.4703 20.0388C83.0903 19.7188 82.9003 19.2788 82.9003 18.7188C82.9003 18.2188 83.0203 17.7988 83.2603 17.4588C83.5203 17.1188 83.8103 16.8488 84.1303 16.6488C83.9103 16.5288 83.6603 16.4888 83.3803 16.5288C82.9003 16.5688 82.4603 16.7388 82.0603 17.0388C81.6603 17.3388 81.3203 17.7088 81.0403 18.1488C80.7603 18.5888 80.5403 19.0588 80.3803 19.5588C80.2403 20.0588 80.1703 20.5388 80.1703 20.9988V28.4088C80.1703 29.3888 80.4203 30.0488 80.9203 30.3888C81.4203 30.7088 82.1503 30.8688 83.1103 30.8688V31.4988C82.6503 31.4788 81.9803 31.4588 81.1003 31.4388C80.2403 31.3988 79.3403 31.3788 78.4003 31.3788C77.6203 31.3788 76.8403 31.3988 76.0603 31.4388C75.3003 31.4588 74.7303 31.4788 74.3503 31.4988V30.8688C75.0903 30.8688 75.6103 30.7188 75.9103 30.4188C76.2303 30.1188 76.3903 29.5488 76.3903 28.7088V19.2588C76.3903 18.3588 76.2403 17.6988 75.9403 17.2788C75.6603 16.8388 75.1303 16.6188 74.3503 16.6188V15.9888C74.9903 16.0488 75.6103 16.0788 76.2103 16.0788C76.9503 16.0788 77.6503 16.0488 78.3103 15.9888C78.9903 15.9088 79.6103 15.7988 80.1703 15.6588V18.7788C80.4103 18.2188 80.7203 17.6988 81.1003 17.2188C81.5003 16.7388 81.9703 16.3488 82.5103 16.0488C83.0703 15.7288 83.6703 15.5688 84.3103 15.5688ZM92.2898 31.7088C91.4298 31.7088 90.6998 31.5488 90.0998 31.2288C89.4998 30.8888 89.0498 30.4388 88.7498 29.8788C88.4498 29.2988 88.2998 28.6588 88.2998 27.9588C88.2998 27.0988 88.4998 26.3988 88.8998 25.8588C89.2998 25.2988 89.8098 24.8588 90.4298 24.5388C91.0698 24.1988 91.7398 23.9188 92.4398 23.6988C93.1398 23.4588 93.7998 23.2388 94.4198 23.0388C95.0398 22.8188 95.5498 22.5688 95.9498 22.2888C96.3498 22.0088 96.5498 21.6388 96.5498 21.1788V18.9888C96.5498 18.3488 96.4498 17.8288 96.2498 17.4288C96.0698 17.0088 95.7898 16.6988 95.4098 16.4988C95.0498 16.2788 94.5898 16.1688 94.0298 16.1688C93.6098 16.1688 93.1698 16.2288 92.7098 16.3488C92.2498 16.4688 91.8698 16.6988 91.5698 17.0388C92.0898 17.1788 92.4898 17.4388 92.7698 17.8188C93.0698 18.1988 93.2198 18.6588 93.2198 19.1988C93.2198 19.8188 93.0098 20.3088 92.5898 20.6688C92.1898 21.0088 91.6798 21.1788 91.0598 21.1788C90.3998 21.1788 89.8998 20.9688 89.5598 20.5488C89.2198 20.1288 89.0498 19.6388 89.0498 19.0788C89.0498 18.5188 89.1898 18.0588 89.4698 17.6988C89.7498 17.3188 90.1398 16.9788 90.6398 16.6788C91.1398 16.3388 91.7798 16.0688 92.5598 15.8688C93.3398 15.6688 94.1898 15.5688 95.1098 15.5688C95.9898 15.5688 96.7698 15.6688 97.4498 15.8688C98.1298 16.0488 98.7098 16.3788 99.1898 16.8588C99.6698 17.3188 99.9798 17.8888 100.12 18.5688C100.26 19.2488 100.33 20.0788 100.33 21.0588V29.2788C100.33 29.7788 100.39 30.1388 100.51 30.3588C100.63 30.5588 100.82 30.6588 101.08 30.6588C101.28 30.6588 101.47 30.6088 101.65 30.5088C101.83 30.4088 102.03 30.2688 102.25 30.0888L102.58 30.5988C102.14 30.9388 101.68 31.2088 101.2 31.4088C100.72 31.6088 100.14 31.7088 99.4598 31.7088C98.7598 31.7088 98.1998 31.6088 97.7798 31.4088C97.3798 31.2088 97.0798 30.9188 96.8798 30.5388C96.6998 30.1588 96.5998 29.7088 96.5798 29.1888C96.0998 29.9888 95.5098 30.6088 94.8098 31.0488C94.1098 31.4888 93.2698 31.7088 92.2898 31.7088ZM94.0898 30.0288C94.5698 30.0288 95.0098 29.8988 95.4098 29.6388C95.8298 29.3788 96.2098 28.9888 96.5498 28.4688V22.4088C96.3498 22.7088 96.0598 22.9788 95.6798 23.2188C95.3198 23.4588 94.9298 23.6988 94.5098 23.9388C94.0898 24.1788 93.6898 24.4588 93.3098 24.7788C92.9498 25.0788 92.6398 25.4588 92.3798 25.9188C92.1398 26.3588 92.0198 26.9288 92.0198 27.6288C92.0198 28.4088 92.2098 29.0088 92.5898 29.4288C92.9698 29.8288 93.4698 30.0288 94.0898 30.0288ZM117.428 15.9888V16.6188C117.048 16.6988 116.688 16.9088 116.348 17.2488C116.028 17.5888 115.718 18.1888 115.418 19.0488L110.828 31.5888C110.588 31.5688 110.348 31.5588 110.108 31.5588C109.868 31.5588 109.618 31.5688 109.358 31.5888L103.958 18.2988C103.658 17.5388 103.348 17.0688 103.028 16.8888C102.708 16.7088 102.438 16.6188 102.218 16.6188V15.9888C102.778 16.0288 103.358 16.0688 103.958 16.1088C104.558 16.1288 105.218 16.1388 105.938 16.1388C106.558 16.1388 107.208 16.1288 107.888 16.1088C108.588 16.0688 109.238 16.0288 109.838 15.9888V16.6188C109.398 16.6188 108.998 16.6488 108.638 16.7088C108.298 16.7688 108.068 16.9288 107.948 17.1888C107.828 17.4288 107.878 17.8588 108.098 18.4788L111.698 27.8088L111.428 28.1388L114.158 20.7288C114.498 19.7888 114.638 19.0288 114.578 18.4488C114.518 17.8688 114.298 17.4288 113.918 17.1288C113.558 16.8288 113.038 16.6588 112.358 16.6188V15.9888C112.698 16.0088 113.018 16.0288 113.318 16.0488C113.638 16.0688 113.948 16.0888 114.248 16.1088C114.568 16.1088 114.868 16.1088 115.148 16.1088C115.568 16.1088 115.978 16.0988 116.378 16.0788C116.798 16.0588 117.148 16.0288 117.428 15.9888ZM125.416 15.5688C127.176 15.5688 128.556 16.0988 129.556 17.1588C130.556 18.2188 131.056 19.9088 131.056 22.2288H120.946L120.916 21.6588H127.576C127.616 20.6788 127.556 19.7788 127.396 18.9588C127.236 18.1188 126.976 17.4488 126.616 16.9488C126.276 16.4488 125.826 16.1988 125.266 16.1988C124.506 16.1988 123.846 16.6488 123.286 17.5488C122.726 18.4288 122.376 19.8788 122.236 21.8988L122.356 22.0788C122.316 22.3388 122.286 22.6188 122.266 22.9188C122.266 23.2188 122.266 23.5188 122.266 23.8188C122.266 25.1988 122.466 26.3388 122.866 27.2388C123.266 28.1388 123.786 28.7988 124.426 29.2188C125.066 29.6388 125.726 29.8488 126.406 29.8488C126.866 29.8488 127.336 29.7788 127.816 29.6388C128.296 29.4988 128.766 29.2388 129.226 28.8588C129.686 28.4788 130.106 27.9388 130.486 27.2388L131.056 27.4788C130.836 28.1788 130.466 28.8788 129.946 29.5788C129.446 30.2588 128.796 30.8188 127.996 31.2588C127.196 31.6988 126.256 31.9188 125.176 31.9188C123.816 31.9188 122.616 31.6188 121.576 31.0188C120.536 30.4188 119.726 29.5288 119.146 28.3488C118.566 27.1488 118.276 25.6888 118.276 23.9688C118.276 22.1488 118.576 20.6188 119.176 19.3788C119.796 18.1388 120.646 17.1988 121.726 16.5588C122.806 15.8988 124.036 15.5688 125.416 15.5688ZM138.643 8.00876V28.7088C138.643 29.5488 138.793 30.1188 139.093 30.4188C139.413 30.7188 139.943 30.8688 140.683 30.8688V31.4988C140.323 31.4788 139.773 31.4588 139.033 31.4388C138.313 31.3988 137.573 31.3788 136.813 31.3788C136.073 31.3788 135.313 31.3988 134.533 31.4388C133.773 31.4588 133.203 31.4788 132.823 31.4988V30.8688C133.563 30.8688 134.083 30.7188 134.383 30.4188C134.703 30.1188 134.863 29.5488 134.863 28.7088V11.6088C134.863 10.7088 134.723 10.0488 134.443 9.62876C134.163 9.18876 133.623 8.96876 132.823 8.96876V8.33876C133.463 8.39876 134.083 8.42876 134.683 8.42876C135.443 8.42876 136.153 8.39876 136.813 8.33876C137.473 8.25876 138.083 8.14876 138.643 8.00876ZM147.842 8.00876V28.7088C147.842 29.5488 147.992 30.1188 148.292 30.4188C148.612 30.7188 149.142 30.8688 149.882 30.8688V31.4988C149.522 31.4788 148.972 31.4588 148.232 31.4388C147.512 31.3988 146.772 31.3788 146.012 31.3788C145.272 31.3788 144.512 31.3988 143.732 31.4388C142.972 31.4588 142.402 31.4788 142.022 31.4988V30.8688C142.762 30.8688 143.282 30.7188 143.582 30.4188C143.902 30.1188 144.062 29.5488 144.062 28.7088V11.6088C144.062 10.7088 143.922 10.0488 143.642 9.62876C143.362 9.18876 142.822 8.96876 142.022 8.96876V8.33876C142.662 8.39876 143.282 8.42876 143.882 8.42876C144.642 8.42876 145.352 8.39876 146.012 8.33876C146.672 8.25876 147.282 8.14876 147.842 8.00876ZM158.611 15.5688C159.991 15.5688 161.211 15.8488 162.271 16.4088C163.351 16.9488 164.201 17.8188 164.821 19.0188C165.461 20.2188 165.781 21.7988 165.781 23.7588C165.781 25.7188 165.461 27.2988 164.821 28.4988C164.201 29.6988 163.351 30.5688 162.271 31.1088C161.211 31.6488 159.991 31.9188 158.611 31.9188C157.231 31.9188 156.001 31.6488 154.921 31.1088C153.841 30.5688 152.991 29.6988 152.371 28.4988C151.751 27.2988 151.441 25.7188 151.441 23.7588C151.441 21.7988 151.751 20.2188 152.371 19.0188C152.991 17.8188 153.841 16.9488 154.921 16.4088C156.001 15.8488 157.231 15.5688 158.611 15.5688ZM158.611 16.1688C157.671 16.1688 156.901 16.7688 156.301 17.9688C155.721 19.1488 155.431 21.0788 155.431 23.7588C155.431 26.4388 155.721 28.3688 156.301 29.5488C156.901 30.7288 157.671 31.3188 158.611 31.3188C159.531 31.3188 160.291 30.7288 160.891 29.5488C161.491 28.3688 161.791 26.4388 161.791 23.7588C161.791 21.0788 161.491 19.1488 160.891 17.9688C160.291 16.7688 159.531 16.1688 158.611 16.1688Z" fill="white"/>
</svg>
