<svg width="10" height="15" viewBox="0 0 10 15" fill="none" xmlns="http://www.w3.org/2000/svg">
<path d="M5.00016 6.05208C2.66683 6.05208 2.66683 5.31708 2.66683 4.88542C2.66683 4.45375 3.4835 3.71875 5.00016 3.71875C6.51683 3.71875 6.62183 4.46542 6.6335 4.88542H8.96683C8.95106 4.09063 8.6652 3.32489 8.15629 2.7142C7.64738 2.10351 6.94574 1.68425 6.16683 1.52542V0.21875H3.8335V1.49042C1.50016 1.87542 0.333496 3.38042 0.333496 4.88542C0.333496 6.19208 0.940163 8.38542 5.00016 8.38542C7.3335 8.38542 7.3335 9.17875 7.3335 9.55208C7.3335 9.92542 6.61016 10.7187 5.00016 10.7187C2.8535 10.7187 2.66683 9.71542 2.66683 9.55208H0.333496C0.333496 10.6254 1.1035 12.5271 3.8335 12.9587V14.2187H6.16683V12.9587C8.50016 12.5621 9.66683 11.0571 9.66683 9.55208C9.66683 8.24542 9.06016 6.05208 5.00016 6.05208V6.05208Z" fill="black"/>
</svg>
