<?xml version="1.0" standalone="no"?>
<!DOCTYPE svg PUBLIC "-//W3C//DTD SVG 20010904//EN"
 "http://www.w3.org/TR/2001/REC-SVG-20010904/DTD/svg10.dtd">
<svg version="1.0" xmlns="http://www.w3.org/2000/svg"
 width="700.000000pt" height="700.000000pt" viewBox="0 0 700.000000 700.000000"
 preserveAspectRatio="xMidYMid meet">
<metadata>
Created by potrace 1.14, written by Peter Selinger 2001-2017
</metadata>
<g transform="translate(0.000000,700.000000) scale(0.100000,-0.100000)"
fill="#000000" stroke="none">
<path d="M3278 6995 c-1 -1 -41 -6 -88 -9 -47 -4 -94 -9 -105 -11 -11 -2 -42
-7 -70 -10 -27 -3 -72 -10 -100 -15 -27 -5 -63 -12 -80 -15 -16 -3 -43 -8 -60
-11 -58 -9 -322 -84 -425 -119 -101 -35 -121 -43 -202 -79 -20 -9 -39 -16 -42
-16 -11 0 -281 -136 -357 -180 -818 -475 -1409 -1257 -1643 -2175 -8 -33 -17
-71 -20 -85 -3 -14 -7 -36 -10 -50 -3 -14 -10 -50 -16 -80 -6 -30 -12 -64 -14
-75 -2 -12 -7 -48 -11 -80 -4 -33 -9 -69 -11 -80 -25 -135 -25 -679 1 -813 1
-9 6 -44 9 -77 4 -33 9 -67 11 -75 3 -8 7 -31 9 -50 16 -124 140 -571 185
-665 6 -11 22 -48 36 -83 110 -270 299 -587 493 -827 387 -481 885 -850 1449
-1071 79 -31 146 -55 148 -52 3 2 5 1062 6 2354 1 2536 -2 2413 53 2584 58
182 153 337 291 475 199 198 435 309 725 340 14 2 199 3 412 4 l387 1 1 485 0
485 -23 5 c-79 18 -128 27 -172 32 -27 3 -53 7 -56 8 -3 2 -35 7 -71 10 -35 4
-78 9 -94 11 -33 5 -540 14 -546 9z"/>
<path d="M4629 4483 c0 -1280 -2 -2350 -5 -2378 -28 -333 -233 -672 -518 -858
-113 -74 -265 -141 -366 -163 -14 -3 -32 -7 -40 -9 -8 -1 -40 -6 -70 -10 -30
-4 -62 -9 -70 -11 -8 -1 -192 -3 -408 -3 l-392 -1 2 -487 3 -487 68 -12 c37
-7 85 -16 105 -19 20 -3 51 -8 67 -10 218 -36 710 -41 925 -9 533 79 911 209
1362 466 12 7 27 16 32 21 6 4 63 41 126 83 238 158 478 366 655 568 33 38 67
77 76 86 85 90 271 361 373 544 167 298 314 689 371 985 32 168 51 298 63 421
9 99 8 526 -1 615 -11 102 -28 229 -32 235 -1 3 -6 28 -9 55 -11 79 -43 221
-77 335 -17 58 -34 119 -39 135 -45 167 -191 490 -317 704 -164 278 -332 490
-573 727 -273 267 -563 471 -905 638 -133 65 -318 143 -382 161 l-23 6 -1
-2328z"/>
</g>
</svg>
