<svg width="23" height="26" viewBox="0 0 23 26" fill="none" xmlns="http://www.w3.org/2000/svg">
<path d="M21.3438 11.1719C21.3438 18.4375 11.1719 25.2188 11.1719 25.2188C11.1719 25.2188 1 18.4375 1 11.1719C1 8.47413 2.07168 5.88687 3.97927 3.97927C5.88687 2.07168 8.47413 1 11.1719 1C13.8696 1 16.4569 2.07168 18.3645 3.97927C20.2721 5.88687 21.3437 8.47413 21.3438 11.1719V11.1719Z" stroke="black" stroke-width="1.5" stroke-linecap="round" stroke-linejoin="round"/>
<path d="M11.1719 13.5938C12.5094 13.5938 13.5938 12.5094 13.5938 11.1719C13.5938 9.83431 12.5094 8.75 11.1719 8.75C9.83431 8.75 8.75 9.83431 8.75 11.1719C8.75 12.5094 9.83431 13.5938 11.1719 13.5938Z" fill="black" stroke="black" stroke-width="1.5" stroke-linecap="round" stroke-linejoin="round"/>
</svg>
