<svg width="41" height="40" viewBox="0 0 41 40" fill="none" xmlns="http://www.w3.org/2000/svg">
<path d="M20.3379 9.96814C19.349 9.96814 18.3823 10.2614 17.56 10.8108C16.7378 11.3602 16.0969 12.1411 15.7185 13.0547C15.3401 13.9684 15.241 14.9737 15.434 15.9436C15.6269 16.9135 16.1031 17.8044 16.8024 18.5037C17.5016 19.2029 18.3925 19.6791 19.3624 19.8721C20.3323 20.065 21.3377 19.966 22.2513 19.5875C23.1649 19.2091 23.9458 18.5682 24.4952 17.746C25.0446 16.9237 25.3379 15.957 25.3379 14.9681C25.3364 13.6425 24.8091 12.3716 23.8718 11.4343C22.9344 10.4969 21.6635 9.96965 20.3379 9.96814ZM20.3379 17.4681C19.8434 17.4681 19.3601 17.3215 18.949 17.0468C18.5378 16.7721 18.2174 16.3817 18.0282 15.9248C17.839 15.468 17.7895 14.9654 17.8859 14.4804C17.9824 13.9955 18.2205 13.55 18.5701 13.2004C18.9198 12.8507 19.3652 12.6126 19.8502 12.5162C20.3351 12.4197 20.8378 12.4692 21.2946 12.6584C21.7514 12.8477 22.1419 13.1681 22.4166 13.5792C22.6913 13.9903 22.8379 14.4737 22.8379 14.9681C22.8371 15.6309 22.5735 16.2664 22.1048 16.7351C21.6361 17.2037 21.0007 17.4674 20.3379 17.4681Z" fill="#2094E6"/>
<path d="M29.9459 5.35273C27.5703 2.97777 24.3992 1.56694 21.0446 1.39254C17.69 1.21815 14.3897 2.29255 11.7806 4.40838C9.17162 6.52421 7.43881 9.53148 6.91666 12.8498C6.39451 16.1681 7.12004 19.5622 8.95321 22.377L18.3991 36.878C18.6093 37.2007 18.8967 37.4658 19.2353 37.6493C19.5738 37.8329 19.9528 37.929 20.3379 37.929C20.723 37.929 21.1021 37.8329 21.4406 37.6493C21.7792 37.4658 22.0666 37.2007 22.2768 36.878L31.723 22.377C33.4239 19.7659 34.1757 16.6494 33.8521 13.5499C33.5286 10.4504 32.1494 7.55631 29.9459 5.35273ZM29.6283 21.0124L20.338 35.2741L11.0476 21.0124C8.20383 16.6469 8.81375 10.8047 12.4978 7.12047C13.5274 6.09086 14.7497 5.27414 16.0949 4.71692C17.4401 4.1597 18.8819 3.8729 20.338 3.8729C21.794 3.8729 23.2358 4.1597 24.581 4.71692C25.9263 5.27414 27.1486 6.09086 28.1781 7.12047C31.8622 10.8047 32.472 16.6469 29.6283 21.0124Z" fill="#2094E6"/>
</svg>
