<svg width="146" height="41" viewBox="0 0 146 41" fill="none" xmlns="http://www.w3.org/2000/svg">
<path d="M37.0791 8.44338C36.4894 7.63403 35.8418 6.86862 35.1411 6.15315C35.0913 6.10301 35.0441 6.05319 34.9943 6.00305C32.7797 3.78632 30.0868 2.1065 27.1221 1.09265V27.9831C27.1221 28.8845 26.9446 29.7771 26.5997 30.6099C26.2547 31.4427 25.7492 32.1993 25.1118 32.8366C24.4744 33.4742 23.7177 33.9798 22.8849 34.3246C22.0521 34.6695 21.1596 34.8471 20.2582 34.8471H16.1665V40.5403C17.5907 40.844 19.0429 40.9974 20.4992 40.9974C24.2806 40.9977 27.9885 39.9522 31.2127 37.9764C34.4369 36.0006 37.0516 33.1711 38.7677 29.8016C40.4837 26.432 41.2342 22.6534 40.9363 18.8837C40.6383 15.114 39.3033 11.5002 37.0791 8.44208V8.44338Z" fill="white"/>
<path d="M20.4992 3.40102e-09C16.7179 0.000360084 13.0103 1.0465 9.78653 3.02274C6.56277 4.99898 3.94835 7.82832 2.23243 11.1979C0.516499 14.5674 -0.234089 18.3459 0.0636677 22.1155C0.361423 25.885 1.69593 29.4988 3.91959 32.5572C4.51062 33.3662 5.15926 34.1316 5.86047 34.8471C5.90867 34.8956 5.95589 34.9441 6.00409 34.9959C8.21821 37.2124 10.9103 38.8925 13.874 39.9076V13.0145C13.8748 11.1942 14.5984 9.44866 15.8859 8.16176C17.1734 6.87487 18.9192 6.15192 20.7395 6.15192H24.8312V0.458693C23.4074 0.153724 21.9553 -2.64036e-05 20.4992 3.40102e-09Z" fill="white"/>
<path d="M66.65 13.2987C66.5833 14.0654 66.5333 14.8154 66.5 15.5487C66.4833 16.2654 66.475 16.8154 66.475 17.1987C66.475 17.582 66.4833 17.9404 66.5 18.2737C66.5167 18.607 66.5333 18.8987 66.55 19.1487H65.975C65.7417 17.8154 65.4583 16.7737 65.125 16.0237C64.7917 15.257 64.35 14.707 63.8 14.3737C63.2667 14.0404 62.5583 13.8737 61.675 13.8737H60.875V28.1237C60.875 28.807 60.9333 29.3154 61.05 29.6487C61.1833 29.982 61.4417 30.207 61.825 30.3237C62.2083 30.4237 62.7667 30.482 63.5 30.4987V30.9987C63 30.9654 62.35 30.9487 61.55 30.9487C60.75 30.932 59.9333 30.9237 59.1 30.9237C58.2333 30.9237 57.4167 30.932 56.65 30.9487C55.9 30.9487 55.2917 30.9654 54.825 30.9987V30.4987C55.5417 30.482 56.0917 30.4237 56.475 30.3237C56.8583 30.207 57.1167 29.982 57.25 29.6487C57.3833 29.3154 57.45 28.807 57.45 28.1237V13.8737H56.625C55.7583 13.8737 55.05 14.0404 54.5 14.3737C53.95 14.707 53.5083 15.257 53.175 16.0237C52.8417 16.7737 52.5667 17.8154 52.35 19.1487H51.775C51.8083 18.8987 51.825 18.607 51.825 18.2737C51.8417 17.9404 51.85 17.582 51.85 17.1987C51.85 16.8154 51.8333 16.2654 51.8 15.5487C51.7833 14.8154 51.7417 14.0654 51.675 13.2987C52.4083 13.3154 53.2167 13.332 54.1 13.3487C54.9833 13.3654 55.8667 13.3737 56.75 13.3737C57.6333 13.3737 58.4417 13.3737 59.175 13.3737C59.8917 13.3737 60.6917 13.3737 61.575 13.3737C62.4583 13.3737 63.3417 13.3654 64.225 13.3487C65.1083 13.332 65.9167 13.3154 66.65 13.2987ZM76.2586 17.7237C76.7753 17.7237 77.2003 17.832 77.5336 18.0487C77.8836 18.2654 78.1419 18.5404 78.3086 18.8737C78.4753 19.207 78.5586 19.557 78.5586 19.9237C78.5586 20.4737 78.3919 20.932 78.0586 21.2987C77.7419 21.6654 77.3169 21.8487 76.7836 21.8487C76.2836 21.8487 75.8753 21.7154 75.5586 21.4487C75.2419 21.182 75.0836 20.8154 75.0836 20.3487C75.0836 19.932 75.1836 19.582 75.3836 19.2987C75.6003 19.0154 75.8419 18.7904 76.1086 18.6237C75.9253 18.5237 75.7169 18.4904 75.4836 18.5237C75.0836 18.557 74.7169 18.6987 74.3836 18.9487C74.0503 19.1987 73.7669 19.507 73.5336 19.8737C73.3003 20.2404 73.1169 20.632 72.9836 21.0487C72.8669 21.4654 72.8086 21.8654 72.8086 22.2487V28.4237C72.8086 29.2404 73.0169 29.7904 73.4336 30.0737C73.8503 30.3404 74.4586 30.4737 75.2586 30.4737V30.9987C74.8753 30.982 74.3169 30.9654 73.5836 30.9487C72.8669 30.9154 72.1169 30.8987 71.3336 30.8987C70.6836 30.8987 70.0336 30.9154 69.3836 30.9487C68.7503 30.9654 68.2753 30.982 67.9586 30.9987V30.4737C68.5753 30.4737 69.0086 30.3487 69.2586 30.0987C69.5253 29.8487 69.6586 29.3737 69.6586 28.6737V20.7987C69.6586 20.0487 69.5336 19.4987 69.2836 19.1487C69.0503 18.782 68.6086 18.5987 67.9586 18.5987V18.0737C68.4919 18.1237 69.0086 18.1487 69.5086 18.1487C70.1253 18.1487 70.7086 18.1237 71.2586 18.0737C71.8253 18.007 72.3419 17.9154 72.8086 17.7987V20.3987C73.0086 19.932 73.2669 19.4987 73.5836 19.0987C73.9169 18.6987 74.3086 18.3737 74.7586 18.1237C75.2253 17.857 75.7253 17.7237 76.2586 17.7237ZM82.9082 31.1737C82.1915 31.1737 81.5832 31.0404 81.0832 30.7737C80.5832 30.4904 80.2082 30.1154 79.9582 29.6487C79.7082 29.1654 79.5832 28.632 79.5832 28.0487C79.5832 27.332 79.7499 26.7487 80.0832 26.2987C80.4165 25.832 80.8415 25.4654 81.3582 25.1987C81.8915 24.9154 82.4499 24.682 83.0332 24.4987C83.6165 24.2987 84.1665 24.1154 84.6832 23.9487C85.1999 23.7654 85.6249 23.557 85.9582 23.3237C86.2915 23.0904 86.4582 22.782 86.4582 22.3987V20.5737C86.4582 20.0404 86.3749 19.607 86.2082 19.2737C86.0582 18.9237 85.8249 18.6654 85.5082 18.4987C85.2082 18.3154 84.8249 18.2237 84.3582 18.2237C84.0082 18.2237 83.6415 18.2737 83.2582 18.3737C82.8749 18.4737 82.5582 18.6654 82.3082 18.9487C82.7415 19.0654 83.0749 19.282 83.3082 19.5987C83.5582 19.9154 83.6832 20.2987 83.6832 20.7487C83.6832 21.2654 83.5082 21.6737 83.1582 21.9737C82.8249 22.257 82.3999 22.3987 81.8832 22.3987C81.3332 22.3987 80.9165 22.2237 80.6332 21.8737C80.3499 21.5237 80.2082 21.1154 80.2082 20.6487C80.2082 20.182 80.3249 19.7987 80.5582 19.4987C80.7915 19.182 81.1165 18.8987 81.5332 18.6487C81.9499 18.3654 82.4832 18.1404 83.1332 17.9737C83.7832 17.807 84.4915 17.7237 85.2582 17.7237C85.9915 17.7237 86.6415 17.807 87.2082 17.9737C87.7749 18.1237 88.2582 18.3987 88.6582 18.7987C89.0582 19.182 89.3165 19.657 89.4332 20.2237C89.5499 20.7904 89.6082 21.482 89.6082 22.2987V29.1487C89.6082 29.5654 89.6582 29.8654 89.7582 30.0487C89.8582 30.2154 90.0165 30.2987 90.2332 30.2987C90.3999 30.2987 90.5582 30.257 90.7082 30.1737C90.8582 30.0904 91.0249 29.9737 91.2082 29.8237L91.4832 30.2487C91.1165 30.532 90.7332 30.757 90.3332 30.9237C89.9332 31.0904 89.4499 31.1737 88.8832 31.1737C88.2999 31.1737 87.8332 31.0904 87.4832 30.9237C87.1499 30.757 86.8999 30.5154 86.7332 30.1987C86.5832 29.882 86.4999 29.507 86.4832 29.0737C86.0832 29.7404 85.5915 30.257 85.0082 30.6237C84.4249 30.9904 83.7249 31.1737 82.9082 31.1737ZM84.4082 29.7737C84.8082 29.7737 85.1749 29.6654 85.5082 29.4487C85.8582 29.232 86.1749 28.907 86.4582 28.4737V23.4237C86.2915 23.6737 86.0499 23.8987 85.7332 24.0987C85.4332 24.2987 85.1082 24.4987 84.7582 24.6987C84.4082 24.8987 84.0749 25.132 83.7582 25.3987C83.4582 25.6487 83.1999 25.9654 82.9832 26.3487C82.7832 26.7154 82.6832 27.1904 82.6832 27.7737C82.6832 28.4237 82.8415 28.9237 83.1582 29.2737C83.4749 29.607 83.8915 29.7737 84.4082 29.7737ZM103.856 18.0737V18.5987C103.54 18.6654 103.24 18.8404 102.956 19.1237C102.69 19.407 102.431 19.907 102.181 20.6237L98.3564 31.0737C98.1564 31.057 97.9564 31.0487 97.7564 31.0487C97.5564 31.0487 97.3481 31.057 97.1314 31.0737L92.6314 19.9987C92.3814 19.3654 92.1231 18.9737 91.8564 18.8237C91.5898 18.6737 91.3648 18.5987 91.1814 18.5987V18.0737C91.6481 18.107 92.1314 18.1404 92.6314 18.1737C93.1314 18.1904 93.6814 18.1987 94.2814 18.1987C94.7981 18.1987 95.3398 18.1904 95.9064 18.1737C96.4898 18.1404 97.0314 18.107 97.5314 18.0737V18.5987C97.1648 18.5987 96.8314 18.6237 96.5314 18.6737C96.2481 18.7237 96.0564 18.857 95.9564 19.0737C95.8564 19.2737 95.8981 19.632 96.0814 20.1487L99.0814 27.9237L98.8564 28.1987L101.131 22.0237C101.415 21.2404 101.531 20.607 101.481 20.1237C101.431 19.6404 101.248 19.2737 100.931 19.0237C100.631 18.7737 100.198 18.632 99.6314 18.5987V18.0737C99.9148 18.0904 100.181 18.107 100.431 18.1237C100.698 18.1404 100.956 18.157 101.206 18.1737C101.473 18.1737 101.723 18.1737 101.956 18.1737C102.306 18.1737 102.648 18.1654 102.981 18.1487C103.331 18.132 103.623 18.107 103.856 18.0737ZM110.513 17.7237C111.98 17.7237 113.13 18.1654 113.963 19.0487C114.797 19.932 115.213 21.3404 115.213 23.2737H106.788L106.763 22.7987H112.313C112.347 21.982 112.297 21.232 112.163 20.5487C112.03 19.8487 111.813 19.2904 111.513 18.8737C111.23 18.457 110.855 18.2487 110.388 18.2487C109.755 18.2487 109.205 18.6237 108.738 19.3737C108.272 20.107 107.98 21.3154 107.863 22.9987L107.963 23.1487C107.93 23.3654 107.905 23.5987 107.888 23.8487C107.888 24.0987 107.888 24.3487 107.888 24.5987C107.888 25.7487 108.055 26.6987 108.388 27.4487C108.722 28.1987 109.155 28.7487 109.688 29.0987C110.222 29.4487 110.772 29.6237 111.338 29.6237C111.722 29.6237 112.113 29.5654 112.513 29.4487C112.913 29.332 113.305 29.1154 113.688 28.7987C114.072 28.482 114.422 28.032 114.738 27.4487L115.213 27.6487C115.03 28.232 114.722 28.8154 114.288 29.3987C113.872 29.9654 113.33 30.432 112.663 30.7987C111.997 31.1654 111.213 31.3487 110.313 31.3487C109.18 31.3487 108.18 31.0987 107.313 30.5987C106.447 30.0987 105.772 29.357 105.288 28.3737C104.805 27.3737 104.563 26.157 104.563 24.7237C104.563 23.207 104.813 21.932 105.313 20.8987C105.83 19.8654 106.538 19.082 107.438 18.5487C108.338 17.9987 109.363 17.7237 110.513 17.7237ZM121.536 11.4237V28.6737C121.536 29.3737 121.661 29.8487 121.911 30.0987C122.177 30.3487 122.619 30.4737 123.236 30.4737V30.9987C122.936 30.982 122.477 30.9654 121.861 30.9487C121.261 30.9154 120.644 30.8987 120.011 30.8987C119.394 30.8987 118.761 30.9154 118.111 30.9487C117.477 30.9654 117.002 30.982 116.686 30.9987V30.4737C117.302 30.4737 117.736 30.3487 117.986 30.0987C118.252 29.8487 118.386 29.3737 118.386 28.6737V14.4237C118.386 13.6737 118.269 13.1237 118.036 12.7737C117.802 12.407 117.352 12.2237 116.686 12.2237V11.6987C117.219 11.7487 117.736 11.7737 118.236 11.7737C118.869 11.7737 119.461 11.7487 120.011 11.6987C120.561 11.632 121.069 11.5404 121.536 11.4237ZM129.202 11.4237V28.6737C129.202 29.3737 129.327 29.8487 129.577 30.0987C129.843 30.3487 130.285 30.4737 130.902 30.4737V30.9987C130.602 30.982 130.143 30.9654 129.527 30.9487C128.927 30.9154 128.31 30.8987 127.677 30.8987C127.06 30.8987 126.427 30.9154 125.777 30.9487C125.143 30.9654 124.668 30.982 124.352 30.9987V30.4737C124.968 30.4737 125.402 30.3487 125.652 30.0987C125.918 29.8487 126.052 29.3737 126.052 28.6737V14.4237C126.052 13.6737 125.935 13.1237 125.702 12.7737C125.468 12.407 125.018 12.2237 124.352 12.2237V11.6987C124.885 11.7487 125.402 11.7737 125.902 11.7737C126.535 11.7737 127.127 11.7487 127.677 11.6987C128.227 11.632 128.735 11.5404 129.202 11.4237ZM138.176 17.7237C139.326 17.7237 140.342 17.957 141.226 18.4237C142.126 18.8737 142.834 19.5987 143.351 20.5987C143.884 21.5987 144.151 22.9154 144.151 24.5487C144.151 26.182 143.884 27.4987 143.351 28.4987C142.834 29.4987 142.126 30.2237 141.226 30.6737C140.342 31.1237 139.326 31.3487 138.176 31.3487C137.026 31.3487 136.001 31.1237 135.101 30.6737C134.201 30.2237 133.492 29.4987 132.976 28.4987C132.459 27.4987 132.201 26.182 132.201 24.5487C132.201 22.9154 132.459 21.5987 132.976 20.5987C133.492 19.5987 134.201 18.8737 135.101 18.4237C136.001 17.957 137.026 17.7237 138.176 17.7237ZM138.176 18.2237C137.392 18.2237 136.751 18.7237 136.251 19.7237C135.767 20.707 135.526 22.3154 135.526 24.5487C135.526 26.782 135.767 28.3904 136.251 29.3737C136.751 30.357 137.392 30.8487 138.176 30.8487C138.942 30.8487 139.576 30.357 140.076 29.3737C140.576 28.3904 140.826 26.782 140.826 24.5487C140.826 22.3154 140.576 20.707 140.076 19.7237C139.576 18.7237 138.942 18.2237 138.176 18.2237Z" fill="white"/>
</svg>
